<?xml version="1.0" encoding="UTF-8" standalone="no"?>
<svg
   xmlns:dc="http://purl.org/dc/elements/1.1/"
   xmlns:cc="http://creativecommons.org/ns#"
   xmlns:rdf="http://www.w3.org/1999/02/22-rdf-syntax-ns#"
   xmlns:svg="http://www.w3.org/2000/svg"
   xmlns="http://www.w3.org/2000/svg"
   xmlns:sodipodi="http://sodipodi.sourceforge.net/DTD/sodipodi-0.dtd"
   xmlns:inkscape="http://www.inkscape.org/namespaces/inkscape"
   sodipodi:docname="green-dragon.svg"
   inkscape:version="1.0 (4035a4f, 2020-05-01)"
   version="1.1"
   id="svg2"
   height="445.16357"
   width="358.81668">
  <defs
     id="defs4">
    <symbol
       id="inkstitch_ignore_layer">
      <title
         id="title9694">Ignore entire layer when generating stitch plan</title>
      <path
         inkscape:connector-curvature="0"
         style="opacity:1;vector-effect:none;fill:#fafafa;fill-opacity:1;fill-rule:evenodd;stroke:#ff0000;stroke-width:1.06501234;stroke-linecap:round;stroke-linejoin:miter;stroke-miterlimit:4;stroke-dasharray:3.19503705, 3.19503705;stroke-dashoffset:0;stroke-opacity:1"
         d="M 9.2465269,-4.9265995e-6 C 9.246525,5.1067241 5.1067028,9.2465451 -2.615882e-5,9.2465451 -5.1067554,9.2465451 -9.2465782,5.1067241 -9.2465801,-4.9265995e-6 -9.24658,-2.4523429 -8.2723922,-4.8042399 -6.538327,-6.5383059 c 1.7340653,-1.734065 4.0859624,-2.708252 6.53830084118,-2.708252 5.10673015882,0 9.24655285882,4.139823 9.24655305882,9.2465529734005 0,0 0,0 0,0"
         id="inkstitch_path25368-7" />
      <path
         sodipodi:nodetypes="ccccc"
         inkscape:connector-curvature="0"
         style="color:#000000;fill:#d5d5d5;fill-opacity:1;fill-rule:evenodd;stroke:#5a5a5a;stroke-width:0.63330007;stroke-linecap:square;stroke-linejoin:round;stroke-miterlimit:0;stroke-opacity:1"
         d="M 4,4.452769 1.46667,1.286102 H -5.5 l 2.53333,3.166667 z"
         id="use5800" />
      <path
         sodipodi:nodetypes="ccccc"
         inkscape:connector-curvature="0"
         style="color:#000000;opacity:0.5;fill:#d5d5d5;fill-opacity:1;fill-rule:evenodd;stroke:#858585;stroke-width:0.63339424;stroke-linecap:square;stroke-linejoin:round;stroke-miterlimit:0;stroke-opacity:1"
         d="M 4,2.552769 1.46667,-0.613898 H -5.5 l 2.53333,3.166667 z"
         id="use5864" />
      <g
         id="g5771">
        <path
           sodipodi:nodetypes="ccccccccc"
           inkscape:connector-curvature="0"
           style="fill:#aa0000;fill-rule:evenodd;stroke:#aa0000;stroke-width:1px"
           d="m -1.0666699,-5.0472339 h 4.4333333 l 0.6333333,0.6333333 V 0.01943274 L 3.3666634,0.65276607 H -1.0666699 L -1.7000032,0.01943274 V -4.4139006 Z"
           id="path8011" />
        <path
           inkscape:connector-curvature="0"
           id="path8023"
           d="m -0.43333658,-3.8755672 c 0,0 3.16666668,3.16666661 3.16666668,3.16666661"
           style="fill:none;stroke:#ffffff;stroke-width:1.70000005" />
        <path
           inkscape:connector-curvature="0"
           id="path8025"
           d="m 2.7333301,-3.8755672 c 0,0 -3.16666668,3.16666661 -3.16666668,3.16666661"
           style="fill:none;stroke:#ffffff;stroke-width:1.79999995;stroke-linejoin:round" />
      </g>
    </symbol>
  </defs>
  <sodipodi:namedview
     inkscape:document-rotation="0"
     inkscape:window-maximized="0"
     inkscape:window-y="23"
     inkscape:window-x="962"
     inkscape:window-height="1078"
     inkscape:window-width="958"
     fit-margin-bottom="0"
     fit-margin-right="0"
     fit-margin-left="0"
     fit-margin-top="0"
     showgrid="false"
     inkscape:current-layer="layer1"
     inkscape:document-units="px"
     inkscape:cy="322.39624"
     inkscape:cx="540.40273"
     inkscape:zoom="0.8948679"
     inkscape:pageshadow="2"
     inkscape:pageopacity="0.0"
     borderopacity="1.0"
     bordercolor="#666666"
     pagecolor="#ffffff"
     id="base" />
  <metadata
     id="metadata7">
    <rdf:RDF>
      <cc:Work
         rdf:about="">
        <dc:format>image/svg+xml</dc:format>
        <dc:type
           rdf:resource="http://purl.org/dc/dcmitype/StillImage" />
        <dc:title />
      </cc:Work>
    </rdf:RDF>
  </metadata>
  <g
     transform="translate(-1282.4468,772.88629)"
     id="layer1"
     inkscape:groupmode="layer"
     inkscape:label="Layer 1">
    <path
       sodipodi:nodetypes="sccscccccssccscsccssssccccscsscccccssssccsscccsscssccccsssccssscsscscccssscsscccsscscccccsccscccscscccccsscssccscscsscccccsssssssccscscsccsccssccc"
       inkscape:connector-curvature="0"
       id="path2758-9"
       d="m 1431.0915,-437.38677 -3.6775,-3.2289 8.2664,-5.083 c 10.1058,-6.2139 24.5325,-20.2127 28.0558,-27.2237 2.6121,-5.1977 6.2022,-16.2991 5.4985,-17.0027 -0.2184,-0.2185 -4.6385,0.076 -9.8224,0.6551 -5.1839,0.5788 -11.5529,0.9034 -14.1534,0.7213 l -4.7283,-0.331 -2.1491,6 c -3.7336,10.4233 -15.5122,33.7963 -19.696,39.0839 -4.8238,6.0965 -8.5122,7.8365 -15.2411,7.1899 -6.3458,-0.6098 -12.3179,-4.5486 -25.2444,-16.6495 l -9.7467,-9.1243 h -5.5431 c -3.4805,0 -6.9236,-0.7077 -9.2532,-1.9018 -8.4896,-4.3518 -18.2102,-14.2959 -18.2102,-18.6287 0,-2.3677 2.5064,-4.0772 3.5358,-2.4115 1.6146,2.6124 9.1959,5.2814 14.9642,5.2681 10.0417,-0.023 31.158,-7.1877 58.0835,-19.7075 6.646,-3.0902 12.8335,-5.6186 13.75,-5.6186 0.9166,0 1.6665,-0.6184 1.6665,-1.3743 0,-2.0362 -2.8535,-9.7531 -4.5818,-12.3909 l -1.5056,-2.2979 -6.7063,3.5608 c -3.6885,1.9584 -10.4823,6.9226 -15.0975,11.0315 -8.1176,7.2272 -8.5578,7.4707 -13.5,7.4671 -3.2931,0 -6.2412,-0.6942 -8.295,-1.9465 -3.5427,-2.1602 -5.9523,-5.8249 -4.6564,-7.0819 0.4634,-0.4496 4.9024,-2.5972 9.8644,-4.7725 4.9619,-2.1753 16.2618,-7.5804 25.1108,-12.0114 l 16.0891,-8.0564 1.5835,-6.2861 c 0.8709,-3.4574 1.496,-6.3735 1.3891,-6.4803 -0.1068,-0.1068 -5.0301,-0.518 -10.9406,-0.9139 l -10.7463,-0.7197 -7.8897,7.5378 c -21.254,20.3059 -53.3119,41.992 -65.4385,44.267 -3.1984,0.6 -3.6792,0.4399 -3.6792,-1.2249 0,-2.4377 3.0616,-5.2577 21.5,-19.8037 8.8357,-6.9705 22.1191,-18.9588 32.3234,-29.1719 l 17.3233,-17.33851 -11.9904,-12.7467 c -19.6072,-20.844 -21.7707,-23.8739 -20.9892,-29.395 0.2229,-1.5748 1.1023,-2.4607 2.6621,-2.6816 3.6206,-0.5129 20.2953,11.0038 31.3146,21.6279 l 9.6437,9.2979 3.4564,-4.2979 c 12.5141,-15.5609 20.632,-32.798 15.4464,-32.798 -0.7203,0 -6.6828,1.7645 -13.25,3.9212 -17.1868,5.644 -18.769,5.841 -21.8849,2.7251 -1.4054,-1.4054 -2.5554,-3.1797 -2.5554,-3.9429 0,-0.7845 2.9334,-2.5391 6.75,-4.0376 10.4684,-4.1101 18.2149,-9.7834 31.5057,-23.0738 13.7514,-13.7509 20.1632,-18.5702 25.6932,-19.312 3.1485,-0.4223 4.0517,-0.1172 5.415,1.8291 1.8404,2.6276 2.1994,12.7569 0.6836,19.2915 -0.8864,3.8211 -0.78,4.0398 5.2277,10.75 3.3728,3.7672 6.4504,6.8494 6.839,6.8494 1.1655,0 8.5706,-12.3075 11.201,-18.6163 3.3456,-8.024 4.7284,-15.0863 5.2384,-26.7536 0.3386,-7.744 0.8815,-10.598 2.5205,-13.25 1.149,-1.8591 2.5239,-3.3801 3.0554,-3.3801 2.3547,0 14.0238,15.6831 15.8224,21.2651 1.1627,3.6085 1.0149,4.1285 -3.5537,12.5 -2.6217,4.8042 -6.6942,12.2731 -9.0498,16.5976 -4.9458,9.0796 -8.3911,13.8311 -13.3082,18.354 l -3.4971,3.2167 3.4651,3.7833 c 1.9058,2.0808 5.694,6.134 8.4183,9.007 l 4.9533,5.2238 4.8346,-7.2238 c 2.9328,-4.382 5.6723,-10.0757 6.9642,-14.4737 1.1713,-3.9875 2.5625,-7.25 3.0916,-7.25 1.5277,0 9.8282,6.4391 14.5589,11.2941 3.4271,3.5171 4.2606,5.0433 4,7.3244 -0.2993,2.6206 -0.7486,2.9298 -4.9622,3.4145 -4.9316,0.5673 -9.1776,3.0813 -17.2034,10.1857 l -4.8365,4.2813 16.3365,17.2233 c 8.9851,9.4727 28.9784,29.36901 44.4297,44.21381 26.4326,25.3952 32.1589,31.6504 34.4211,37.6004 0.9789,2.5749 -0.572,3.4951 -2.5643,1.5214 -1.5409,-1.5265 -29.0831,-13.9766 -40.2585,-18.1984 -27.2924,-10.3103 -32.0539,-14.6693 -51.7339,-47.3605 -28.436,-47.23611 -46.2133,-75.51261 -47.4576,-75.48591 -0.275,0.01 -1.7761,3.3333 -3.3357,7.394 -5.7685,15.019 -21.9836,39.4497 -37.6178,56.6776 l -7.4535,8.21321 3.907,-0.7329 c 5.5117,-1.034 11.0629,-4.05931 17.8991,-9.75451 4.9987,-4.1644 6.4437,-4.8684 9.4678,-4.613 2.7719,0.2342 4.0784,1.0602 5.8509,3.6994 1.2552,1.8688 2.2822,4.4163 2.2822,5.6611 0,2.6736 -4.5393,6.78341 -9.4562,8.56131 -2.7235,0.9849 -3.9051,2.292 -5.5699,6.162 -1.1622,2.7015 -1.9692,5.0516 -1.7935,5.2224 0.1758,0.1707 4.3696,-1.4361 9.3196,-3.5708 4.95,-2.1347 10.184,-4.301 11.6311,-4.8141 2.3033,-0.8166 2.7793,-1.7842 3.8213,-7.7679 3.0814,-17.69491 3.8531,-34.14551 1.9824,-42.26111 -1.2778,-5.5431 -0.2331,-6.8712 4.0192,-5.1099 3.474,1.439 12.4517,11.3257 14.0127,15.4316 2.8852,7.5886 0.032,18.3725 -10.8805,41.11821 l -6.8276,14.2316 6.1207,-1.4075 c 9.7936,-2.2521 12.1034,-3.2074 19.31,-7.9856 6.0489,-4.0106 7.3151,-4.4706 11.32,-4.1124 5.6308,0.5037 9.7402,2.4718 12.2528,5.8683 3.7829,5.1137 -1.5158,8.8527 -15.6624,11.052 l -7.2254,1.1233 0.3451,8.5998 c 0.1899,4.7299 0.5784,10.4803 0.8635,12.7787 l 0.5183,4.1789 3.6994,-0.5792 c 6.016,-0.942 24.3742,-4.988 28.7397,-6.3341 5.4466,-1.6793 9.8835,-0.6783 17.5555,3.9606 4.9499,2.993 6.4042,4.4047 6.4042,6.2167 0,3.2471 -3.6349,3.7501 -27.6104,3.8206 -10.7858,0.032 -21.6652,0.3392 -24.1765,0.6834 l -4.566,0.6259 -0.6124,7.6241 c -1.4471,18.0195 -4.9829,28.5057 -11.966,35.4889 -6.7405,6.7404 -21.4065,12.8396 -34.1576,14.2051 -5.847,0.6262 -6.2349,0.5238 -9.7664,-2.5769 z m -25.6263,-22.006 c 4.3879,-3.1245 11.3158,-12.7759 15.5003,-21.5939 1.9147,-4.0348 3.4813,-7.8075 3.4813,-8.3836 0,-1.2433 -2.1896,-0.7577 -14.4857,3.2123 -9.8064,3.1662 -14.6979,5.8079 -27.3442,14.7674 l -8.3299,5.9014 6.3192,3.19 c 13.0492,6.5872 18.7533,7.2541 24.859,2.9064 z m 65.5205,-39.1924 c 0.9107,-0.9107 3.1454,-11.7825 4.0173,-19.5445 l 0.7021,-6.25 h -9.561 c -9.4835,0 -9.5785,0.024 -11.6987,3.002 -2.0369,2.8606 -5.7502,5.5797 -6.5406,4.7894 -0.2038,-0.2039 0.7346,-3.9529 2.0855,-8.3311 1.3509,-4.3782 2.4563,-8.046 2.4564,-8.1507 10e-5,-0.2507 -11.9689,3.884 -19.2499,6.6499 -5.6739,2.1553 -7.3842,4.4762 -4.1992,5.6984 3.9059,1.4988 10.1098,12.2674 11.9265,20.7021 l 0.616,2.86 14.3819,-0.3719 c 7.9101,-0.2045 14.6887,-0.6787 15.0637,-1.0536 z"
       style="fill:#003800;fill-opacity:1" />
    <path
       sodipodi:nodetypes="cssccscsscsscccssscssssccscsss"
       style="fill:#003800;fill-opacity:1"
       d="m 1342.2102,-328.40047 c -27.7375,-4.7406 -50.9731,-25.9296 -57.8288,-52.7351 -1.8736,-7.3256 -1.9346,-12.6602 -1.9346,-169.2441 0,-157.64151 0.049,-161.87271 1.972,-169.39051 6.3182,-24.7039 25.7265,-43.8296 52.028,-51.2706 6.1444,-1.7383 12.9832,-1.8389 125,-1.8389 132.8944,0 123.3247,-0.5107 139.5,7.4449 19.0705,9.3797 32.6921,25.8219 38.1671,46.0703 1.629,6.0245 1.7767,17.5223 2.082,161.9848 0.1984,93.86021 -0.049,159.30681 -0.6248,165.10361 -1.7791,17.9217 -7.7173,30.4206 -20.6243,43.4108 -8.6537,8.7095 -17.7883,14.2008 -31,18.6358 l -7,2.3498 -117.5,0.1443 c -64.625,0.079 -119.6315,-0.2199 -122.2366,-0.6651 z m 233.0991,-4.0212 c 23.4638,-2.9421 44.0969,-17.1894 54.0805,-37.3429 7.5478,-15.2366 7.1237,-3.8091 6.8247,-183.8861 l -0.2677,-161.22901 -2.6794,-7.3349 c -3.9178,-10.725 -8.379,-17.6654 -16.8206,-26.1682 -8.7363,-8.7997 -19.4738,-14.9211 -31.6232,-18.0284 -7.4379,-1.9023 -11.5875,-1.9685 -123.3768,-1.9685 -111.0466,0 -115.9826,0.077 -123.2336,1.9319 -23.6581,6.0507 -42.2179,23.9448 -49.41,47.6376 -1.6954,5.5854 -1.8176,15.1509 -2.0993,164.3671 -0.3386,179.35741 -0.7589,168.68881 7.2838,184.89981 10.0747,20.307 30.594,34.4481 53.9591,37.1867 9.9867,1.1705 217.9832,1.111 227.3625,-0.065 z"
       id="path2972"
       inkscape:connector-curvature="0" />
    <path
       style="fill:#003800;fill-opacity:1"
       d="M254.6426,340.47612  254.6426,340.47612  256.010238477,340.786614531  257.502720313,340.9350575  259.129970117,340.920037969  260.9019125,340.740145  264.919573437,339.880095  269.6351,338.34362  273.23474375,336.804411797  276.0456875,335.115473125  277.159598047,334.204524053  278.081375,333.243745391  278.812698828,332.229004814  279.35525,331.15617  279.710708984,330.021108623  279.88075625,328.819688359  279.867072266,327.547776885  279.6713375,326.201241875  278.7404375,323.267771953  277.1015,319.98622  275.670842896,317.636924761  274.179149414,315.485756523  272.609211304,313.524847759  270.943820312,311.746330938  269.165768188,310.14233853  267.25784668,308.705003008  265.202847534,307.426456841  262.9835625,306.2988325  260.582783325,305.314262456  257.983301758,304.46487918  255.167909546,303.742815142  252.119398437,303.140202813  245.254186523,302.261863164  237.25,301.76692  230.349146875,301.5664575  225.970075,301.60532  223.668465625,301.9060825  223.157859766,302.161730938  223.0,302.49132  223.480364062,303.494221563  224.7882875,305.2931825  229.0878,310.25962  231.956245313,313.551890313  235.2661875,317.7052075  238.607985938,322.187755938  241.572,326.46772  246.054153125,333.0618075  247.766562891,335.344659063  249.24655,337.08002  250.584130859,338.364368438  251.869321875,339.2941825  253.192139453,339.965940313  254.6426,340.47612  Z"
       id="path3094"
       inkscape:connector-curvature="0"
       sodipodi:nodetypes="csssscsc"
       transform="matrix(1.000000,-0.000000,-0.000000,1.000000,1282.446800,-772.886290)" />
  </g>
  <g
     id="__validation_layer__"
     inkscape:groupmode="layer"
     inkscape:label="Troubleshoot">
    <g
       id="__validation_warnings__"
       inkscape:label="Warnings" />
    <g
       id="__validation_ignored__"
       inkscape:label="Type Warnings" />
  </g>
</svg>
