<?xml version="1.0" encoding="UTF-8" standalone="no"?>
<svg
   xmlns:dc="http://purl.org/dc/elements/1.1/"
   xmlns:cc="http://creativecommons.org/ns#"
   xmlns:rdf="http://www.w3.org/1999/02/22-rdf-syntax-ns#"
   xmlns:svg="http://www.w3.org/2000/svg"
   xmlns="http://www.w3.org/2000/svg"
   xmlns:sodipodi="http://sodipodi.sourceforge.net/DTD/sodipodi-0.dtd"
   xmlns:inkscape="http://www.inkscape.org/namespaces/inkscape"
   sodipodi:docname="red-dragon.svg"
   inkscape:version="1.0 (4035a4f, 2020-05-01)"
   version="1.1"
   id="svg2"
   height="444.73166"
   width="356.40207">
  <defs
     id="defs4" />
  <sodipodi:namedview
     inkscape:document-rotation="0"
     inkscape:window-maximized="0"
     inkscape:window-y="23"
     inkscape:window-x="237"
     inkscape:window-height="1078"
     inkscape:window-width="958"
     fit-margin-bottom="0"
     fit-margin-right="0"
     fit-margin-left="0"
     fit-margin-top="0"
     showgrid="false"
     inkscape:current-layer="layer1"
     inkscape:document-units="px"
     inkscape:cy="222.03774"
     inkscape:cx="61.945649"
     inkscape:zoom="1.2006107"
     inkscape:pageshadow="2"
     inkscape:pageopacity="0.0"
     borderopacity="1.0"
     bordercolor="#666666"
     pagecolor="#ffffff"
     id="base" />
  <metadata
     id="metadata7">
    <rdf:RDF>
      <cc:Work
         rdf:about="">
        <dc:format>image/svg+xml</dc:format>
        <dc:type
           rdf:resource="http://purl.org/dc/dcmitype/StillImage" />
        <dc:title />
      </cc:Work>
    </rdf:RDF>
  </metadata>
  <g
     transform="translate(-1219.8811,1315.6956)"
     id="layer1"
     inkscape:groupmode="layer"
     inkscape:label="Layer 1">
    <path
       sodipodi:nodetypes="cscsccccsscccsscssccccscccccssscs"
       inkscape:connector-curvature="0"
       id="path2665"
       d="m 1282.7832,-871.85489 c -27.0628,-3.2503 -49.4971,-20.7189 -59.3114,-46.1834 l -3.1886,-8.2731 -0.2646,-164.91881 c -0.2944,-183.482 -0.7935,-169.5586 6.6353,-185.0812 8.9939,-18.7927 25.7558,-32.2144 46.9132,-37.5647 7.5924,-1.9199 11.1403,-1.9675 127.2631,-1.7052 l 119.453,0.2699 8,2.8078 c 21.7494,7.6334 36.868,22.3156 45.1792,43.875 l 2.8208,7.3172 v 167.5 167.50001 l -3.1886,8.2731 c -10.0868,26.1712 -32.1643,42.9756 -60.8114,46.287 -9.6236,1.1124 -220.1666,1.0173 -229.5,-0.1036 z m 242.5,-6.1809 c 21.5162,-7.3274 38.3226,-23.7039 45.2177,-44.0611 l 2.7823,-8.2145 v -163.50001 -163.5 l -2.8237,-7.9904 c -8.5923,-24.315 -28.2049,-41.2631 -53.3081,-46.0662 -11.2161,-2.146 -226.5204,-2.146 -237.7365,0 -25.1032,4.8031 -44.7157,21.7512 -53.3081,46.0662 l -2.8236,7.9904 v 163 163.00001 l 2.8862,8.8057 c 7.6909,23.4645 27.0663,40.6503 52.1138,46.2244 4.8426,1.0777 28.4721,1.3 122.5,1.1526 l 116.5,-0.1827 z"
       style="fill:#871a1f" />
    <path
       sodipodi:nodetypes="cccccscsssccccccsssccscscccccccscscccssccscccsssssssssccss"
       style="fill:#871a1f"
       d="m 1396.3798,-942.06139 c -5.9666,-9.2622 -9.3287,-52.7808 -8.0732,-104.50001 l 0.6857,-28.25 -5.8546,0.037 c -3.22,0.02 -8.9249,0.6308 -12.6775,1.357 -5.4498,1.0545 -7.4006,1.9527 -9.6936,4.4632 -3.46,3.7882 -6.2951,3.9748 -11.0722,0.7287 -6.73,-4.5732 -34.6877,-38.5851 -50.0632,-60.9043 -4.2869,-6.2229 -4.848,-7.6447 -4.848,-12.2832 0,-6.7656 1.9968,-15.3982 3.5617,-15.3982 2.543,0 13.3042,9.0241 22.629,18.9762 l 9.6908,10.3426 28.0553,-9.4094 28.0554,-9.4094 v -4.119 c 0.01,-6.1892 -2.817,-21.1333 -4.6696,-24.7209 -0.8976,-1.738 -4.9496,-6.7601 -9.0045,-11.1601 -14.4848,-15.7175 -15.8646,-24.708 -5.2022,-33.8956 5.8111,-5.0073 11.5867,-8.3105 15.9111,-9.1001 3.0478,-0.5565 4.4161,-0.056 10,3.6595 8.4065,5.5931 29.1537,26.1349 31.862,31.5464 1.1589,2.3155 2.1065,5.2405 2.1058,6.5 -7e-4,1.3076 -2.5011,5.3483 -5.8292,9.4201 -6.9333,8.4825 -9.348,13.2297 -9.9618,19.5845 l -0.4554,4.7149 6.8738,-2.0048 c 12.1429,-3.5414 37.2956,-8.9252 41.6509,-8.9151 9.318,0.022 16.5662,5.7815 35.8512,28.4902 11.8918,14.0031 13.4783,16.2934 12.1834,17.5883 -0.591,0.5911 -5.4153,2.1498 -10.7205,3.464 -13.8187,3.4229 -19.3914,7.7467 -32.5078,25.2221 -16.3233,21.7482 -18.8938,23.7254 -29.9321,23.0225 -5.4412,-0.3465 -6.7703,-0.8153 -8.7126,-3.0734 -2.0125,-2.3396 -3.2898,-2.7477 -10.4748,-3.3469 l -8.1829,-0.6824 0.603,12.4029 c 0.3317,6.8216 1.1119,28.1529 1.7339,47.4029 1.4328,44.34901 0.8555,51.10731 -5.5442,64.89581 -2.4517,5.2823 -4.9234,9.6042 -5.4926,9.6042 -0.5692,0 -1.6872,-1.0125 -2.4844,-2.25 z m -18.5966,-143.21711 c 5.225,-0.8387 9.8969,-1.5267 10.3821,-1.5289 0.9038,0 0.3814,-42.5737 -0.5336,-43.4888 -1.2171,-1.2171 -47.2253,8.5681 -49.1947,10.4629 -0.4653,0.4478 2.8291,5.2484 7.321,10.668 4.4919,5.4196 10.6939,13.5702 13.7821,18.1122 3.8994,5.735 6.093,8.1119 7.1791,7.7789 0.8602,-0.2637 5.839,-1.1656 11.064,-2.0043 z m 61.4541,-15.2829 c 15.1919,-23.1814 19.7701,-34.2255 16.6242,-40.1036 -1.6753,-3.1303 -6.3726,-2.8102 -27.1998,1.8536 -9.8245,2.2 -18.0529,4 -18.2853,4 -0.631,0 -1.4569,12.4895 -2.0245,30.6158 l -0.5047,16.1159 9.218,0.981 c 5.0699,0.5395 9.9577,1.0499 10.8618,1.1341 1.0882,0.1014 4.9111,-4.8322 11.3103,-14.5968 z"
       id="path4867"
       inkscape:connector-curvature="0" />
  </g>
</svg>
