
<svg xmlns="http://www.w3.org/2000/svg" xml:space="preserve" width="17.0063in" height="17.1928in" shape-rendering="geometricPrecision" text-rendering="geometricPrecision" image-rendering="optimizeQuality" fill-rule="evenodd" clip-rule="evenodd"
viewBox="0 0 5.61758 5.67919"
 xmlns:xlink="http://www.w3.org/1999/xlink">
 <g id="Layer_x0020_1">
  <metadata id="CorelCorpID_0Corel-Layer"/>

  <path fill="#3300CC" style="transform:translate(-2.5px, 2.5px)" fill-rule="nonzero" d="M2.8533 0l0.17368 0.384684 0 -0.255368c0,-0.0229952 -0.00246052,-0.0369079 -0.00738027,-0.0415935 -0.00491715,-0.00468176 -0.0153419,-0.00709677 -0.031386,-0.00709677l-0.0268187 0 0 -0.0806264 0.207291 0 0 0.0806264 -0.0168647 0c-0.0163966,0 -0.0270515,0.00255546 -0.0317371,0.00766638 -0.00468436,0.00510962 -0.00702654,0.0188792 -0.00702654,0.0410239l0 0.442033 -0.161618 0 -0.183283 -0.409669 0 0.279501c0,0.0222865 0.00234218,0.035913 0.00702654,0.0411657 0.00468566,0.00525137 0.0153432,0.00794859 0.0317371,0.00794859l0.0209665 0 0 0.0810542 -0.207878 0 0 -0.0810542 0.0229536 0c0.0167464,0 0.0275222,-0.00269721 0.0323223,-0.00809164 0.0048014,-0.00539313 0.00714618,-0.0190196 0.00714618,-0.0410226l0 -0.311865c0,-0.0217195 -0.00234478,-0.0352055 -0.00702914,-0.0405986 -0.00468176,-0.00539443 -0.0154576,-0.00809164 -0.0324394,-0.00809164l-0.0229536 0 0 -0.0806264 0.233291 0z"/>

  <path fill="#3300CC" style="transform:translate(2.5px, -2.5px)" fill-rule="nonzero" d="M2.68079 5.45179l0.0679271 0c0.0112414,0.0440072 0.0297474,0.0785001 0.0557454,0.103341 0.0259994,0.0248419 0.0565673,0.0371901 0.0918197,0.0371901 0.0211954,0 0.0382955,-0.00553488 0.0510611,-0.0164642 0.0127643,-0.0109319 0.0192056,-0.0252672 0.0192056,-0.0430124 0,-0.0273961 -0.0277563,-0.0503926 -0.0833847,-0.068987 -0.0180352,-0.00581969 -0.0322079,-0.0106458 -0.042513,-0.0146214 -0.0333783,-0.0122064 -0.059141,-0.02257 -0.0771762,-0.0310869 -0.0181535,-0.00865995 -0.0311545,-0.0167503 -0.0391174,-0.0241319 -0.0190912,-0.0171769 -0.0330272,-0.0363382 -0.0420435,-0.0572059 -0.00901759,-0.0210081 -0.0135862,-0.0447134 -0.0135862,-0.0714007 0,-0.0573476 0.017567,-0.103767 0.0527023,-0.13897 0.0351327,-0.0352029 0.0815107,-0.052805 0.139129,-0.052805 0.0292792,0 0.056566,0.00340598 0.0819815,0.0103636 0.0254154,0.00695371 0.0500077,0.0176008 0.0737806,0.0320804l0.0127656 -0.0286745 0.0675747 0 0 0.198445 -0.0792856 0c-0.0077288,-0.0405973 -0.0223684,-0.0706907 -0.0439175,-0.0905634 -0.0215491,-0.0198741 -0.0502418,-0.0298098 -0.0861951,-0.0298098 -0.0209639,0 -0.0382955,0.00581969 -0.0519974,0.0174604 -0.0135862,0.0116394 -0.0203774,0.025976 -0.0203774,0.042868 0,0.025552 0.0261138,0.0448564 0.0782309,0.0579173 0.0127643,0.00340598 0.0227195,0.00596014 0.0298618,0.00794728 0.0727272,0.0202993 0.123791,0.0454261 0.15307,0.0755194 0.0292792,0.0300933 0.0439162,0.0709742 0.0439162,0.122786 0,0.0576324 -0.0180352,0.103624 -0.0539885,0.137834 -0.0360716,0.0342119 -0.0846722,0.0513862 -0.145691,0.0513862 -0.0278721,0 -0.0548091,-0.00383254 -0.0806901,-0.0114976 -0.0257653,-0.00752333 -0.0514135,-0.0191627 -0.0768264,-0.0346346l-0.01745 0.0316552 -0.0645315 0 0 -0.212928z"/>

  <path fill="#3300CC" style="transform:translate(-2.5px, -2.5px)" fill-rule="nonzero" d="M5.61489 2.53418l0 0.212925 -0.0748366 0c-0.0048014,-0.0276809 -0.00995524,-0.0493978 -0.0152248,-0.064871 -0.00538532,-0.015615 -0.011945,-0.0281062 -0.0197921,-0.0374749 -0.00889924,-0.0107889 -0.0197921,-0.0184526 -0.0325577,-0.023137 -0.0128826,-0.00454391 -0.0336111,-0.00681586 -0.0621868,-0.00681586l-0.0140518 0 -0.0604324 0 0 0.156857 0.0181522 0c0.021315,0 0.0363044,-0.00624755 0.0448551,-0.0187387 0.00854811,-0.0124925 0.0128826,-0.0346346 0.0128826,-0.0665746l0 -0.00496657 0.059024 0 0 0.260761 -0.059024 0c-0.000936352,-0.0398886 -0.00515514,-0.0658658 -0.0128826,-0.0777887 -0.00761436,-0.0119229 -0.0223697,-0.0178856 -0.0441542,-0.0178856l-0.0188532 0 0 0.178006 0.0833847 0c0.0323223,0 0.054575,-0.00241241 0.0667541,-0.00709677 0.0122974,-0.00468566 0.0217845,-0.012776 0.0283415,-0.0241306 0.00737897,-0.0134861 0.013118,-0.0300933 0.0173329,-0.0496826 0.00421618,-0.0195893 0.00702654,-0.0441477 0.00843237,-0.0738157l0.0775299 0 0 0.23578 -0.497498 0 0 -0.0810542 0.0236559 0c0.015576,0 0.0257653,-0.00227195 0.0306824,-0.00667151 0.00491845,-0.00440085 0.00737767,-0.0171769 0.00737767,-0.0381849l0 -0.0042578 0 -0.311865c0,-0.0221447 -0.00233958,-0.0359143 -0.0069095,-0.0410239 -0.00456601,-0.00511092 -0.0151065,-0.00766638 -0.0318542,-0.00766638l-0.0229523 0 0 -0.0806264 0.494805 0z"/>

  <path fill="#3300CC" style="transform:translate(2.5px, 2.5px)" fill-rule="nonzero" d="M0.218535 2.53418l0 0.0806264c-0.0107758,0 -0.0183863,0.00170494 -0.0228379,0.00496917 -0.00445027,0.00340598 -0.00667411,0.00894346 -0.00667411,0.0166072 0,0.00397559 0.000232787,0.00780683 0.000702264,0.0114976 0.000466875,0.00369209 0.00117174,0.00724112 0.00210809,0.0106484l0.0668711 0.289437 0.054575 -0.269992c-0.00339688,-0.0246989 -0.00913463,-0.0411631 -0.0170975,-0.0496826 -0.00808124,-0.00837254 -0.0217845,-0.0129165 -0.0412242,-0.0134848l0 -0.0806264 0.232587 0 0 0.0806264 -0.0154576 0c-0.013936,0 -0.0233061,0.00156189 -0.027993,0.00482741 -0.00468436,0.00312247 -0.00702394,0.00880171 -0.00702394,0.016749 0,0.00312507 0.000232787,0.00624755 0.00058522,0.00937002 0.000349831,0.00326553 0.0010534,0.00752203 0.00222514,0.012776l0.0583204 0.289437 0.0604324 -0.29029c0.000818007,-0.0042578 0.00152417,-0.00809164 0.00198975,-0.0116394 0.000469476,-0.00369079 0.000703564,-0.00681326 0.000703564,-0.00965353 0,-0.00823209 -0.00246052,-0.01391 -0.00737767,-0.0170325 -0.00491845,-0.00298202 -0.0154589,-0.00454391 -0.0317397,-0.00454391l0 -0.0806264 0.179769 0 0 0.0806264c-0.0148724,0 -0.0262335,0.00411865 -0.033961,0.012209 -0.0077301,0.00823339 -0.0140544,0.0225687 -0.0188558,0.0431515l-0.0981414 0.435363 -0.149906 0 -0.0463767 -0.232514 -0.0476655 0.232514 -0.150959 0 -0.0970867 -0.42003c-0.00597444,-0.0249837 -0.0134692,-0.0428693 -0.0226025,-0.0536582 -0.00925428,-0.0107889 -0.0213163,-0.0164668 -0.0364241,-0.0170351l0 -0.0806264 0.218535 0z"/>

  <path fill="#3300CC" fill-rule="nonzero" d="M2.88815 1.43261l1.43054e-005 0 0 0.000118344c0.383084,3.90147e-006 0.729893,0.155268 0.980877,0.406254 0.250976,0.250977 0.406236,0.597773 0.406244,0.980849l0.000118344 0 0 3.12117e-005 0 1.56059e-005 -0.000118344 0c-3.90147e-006,0.383084 -0.155268,0.729893 -0.406254,0.980877 -0.250979,0.250975 -0.597776,0.406235 -0.980849,0.406244l0 0.000117044 -3.12117e-005 0 -1.56059e-005 0 0 -0.000117044c-0.383085,-3.90147e-006 -0.729893,-0.155269 -0.980877,-0.406254 -0.250975,-0.25098 -0.406235,-0.597776 -0.406244,-0.980849l-0.000117044 0 0 -3.25122e-005 0 -1.43054e-005 0.000117044 0c3.90147e-006,-0.383086 0.155269,-0.729894 0.406254,-0.980877 0.250977,-0.250976 0.597775,-0.406236 0.980849,-0.406244l0 -0.000118344 3.25122e-005 0zm1.43054e-005 0.0601983l0 0.000117044 -1.43054e-005 0 -3.25122e-005 0 0 -0.000117044c-0.366266,5.20195e-006 -0.697998,0.148604 -0.938204,0.388808 -0.240217,0.240215 -0.388817,0.571955 -0.38882,0.938232l0.000117044 0 0 1.43054e-005 0 3.25122e-005 -0.000117044 0c6.50244e-006,0.366264 0.148606,0.697996 0.388808,0.938204 0.240215,0.240217 0.571956,0.388817 0.938232,0.38882l0 -0.000117044 1.56059e-005 0 3.12117e-005 0 0 0.000117044c0.366264,-6.50244e-006 0.697997,-0.148606 0.938205,-0.38881 0.240216,-0.240215 0.388817,-0.571952 0.388819,-0.938231l-0.000117044 0 0 -1.56059e-005 0 -3.12117e-005 0.000117044 0c-6.50244e-006,-0.366267 -0.148604,-0.697998 -0.388808,-0.938205 -0.240215,-0.240216 -0.571954,-0.388817 -0.938232,-0.388819z"/>
  <path fill="#3300CC" fill-rule="nonzero" d="M2.88815 1.57584l1.43054e-005 0 0 8.97337e-005c0.343519,3.90147e-006 0.65452,0.139242 0.879597,0.364323 0.22507,0.225073 0.364305,0.536061 0.364312,0.87957l8.97337e-005 0 0 3.12117e-005 0 1.56059e-005 -8.97337e-005 0c-3.90147e-006,0.343518 -0.139246,0.654519 -0.364323,0.879594 -0.225073,0.225073 -0.536061,0.364306 -0.87957,0.364315l0 8.97337e-005 -3.12117e-005 0 -1.56059e-005 0 0 -8.97337e-005c-0.34352,-3.90147e-006 -0.654522,-0.139247 -0.879597,-0.364324 -0.22507,-0.225074 -0.364303,-0.536063 -0.364312,-0.879568l-8.97337e-005 0 0 -3.25122e-005 0 -1.43054e-005 8.97337e-005 0c3.90147e-006,-0.343521 0.139242,-0.65452 0.364324,-0.879597 0.225072,-0.22507 0.536061,-0.364305 0.879568,-0.364312l0 -8.97337e-005 3.25122e-005 0zm1.43054e-005 0.0451491l0 8.97337e-005 -1.43054e-005 0 -3.25122e-005 0 0 -8.97337e-005c-0.3309,6.50244e-006 -0.63059,0.134246 -0.847584,0.351237 -0.217003,0.217 -0.351246,0.5167 -0.351249,0.847613l8.97337e-005 0 0 1.43054e-005 0 3.25122e-005 -8.97337e-005 0c6.50244e-006,0.330898 0.134246,0.630587 0.351239,0.847584 0.216998,0.217001 0.516698,0.351246 0.847612,0.351248l0 -8.97337e-005 1.56059e-005 0 3.12117e-005 0 0 8.97337e-005c0.330901,-5.20195e-006 0.630589,-0.134243 0.847584,-0.35124 0.217001,-0.216998 0.351246,-0.516698 0.351249,-0.847609l-8.97337e-005 0 0 -1.56059e-005 0 -3.12117e-005 8.97337e-005 0c-6.50244e-006,-0.330901 -0.134246,-0.63059 -0.351237,-0.847584 -0.217,-0.217003 -0.516701,-0.351246 -0.847613,-0.351249z"/>
  <path fill="#FFCC00" d="M2.88817 1.4928l-4.68176e-005 0c-0.366266,5.20195e-006 -0.697998,0.148604 -0.938204,0.388808 -0.240217,0.240215 -0.388817,0.571955 -0.38882,0.938232l0 4.68176e-005c6.50244e-006,0.366264 0.148606,0.697996 0.388808,0.938204 0.240215,0.240217 0.571956,0.388817 0.938232,0.38882l4.68176e-005 0c0.366264,-6.50244e-006 0.697997,-0.148606 0.938205,-0.38881 0.240216,-0.240215 0.388817,-0.571952 0.388819,-0.938231l0 -4.68176e-005c-6.50244e-006,-0.366267 -0.148604,-0.697998 -0.388808,-0.938205 -0.240215,-0.240216 -0.571954,-0.388817 -0.938232,-0.388819zm0 0.0831311c0.343519,3.90147e-006 0.65452,0.139242 0.879597,0.364323 0.22507,0.225073 0.364305,0.536061 0.364312,0.87957l0 4.68176e-005c-3.90147e-006,0.343518 -0.139246,0.654519 -0.364323,0.879594 -0.225073,0.225073 -0.536061,0.364306 -0.87957,0.364315l-4.68176e-005 0c-0.34352,-3.90147e-006 -0.654522,-0.139247 -0.879597,-0.364324 -0.22507,-0.225074 -0.364303,-0.536063 -0.364312,-0.879568l0 -4.68176e-005c3.90147e-006,-0.343521 0.139242,-0.65452 0.364324,-0.879597 0.225072,-0.22507 0.536061,-0.364305 0.879568,-0.364312l4.68176e-005 0z"/>
  <path fill="#64FFFF" d="M2.88817 1.62099l0 8.97337e-005 -1.43054e-005 0 -3.25122e-005 0 0 -8.97337e-005c-0.3309,6.50244e-006 -0.63059,0.134246 -0.847584,0.351237 -0.217003,0.217 -0.351246,0.5167 -0.351249,0.847613l8.97337e-005 0 0 1.43054e-005 0 3.25122e-005 -8.97337e-005 0c6.50244e-006,0.330898 0.134246,0.630587 0.351239,0.847584 0.216998,0.217001 0.516698,0.351246 0.847612,0.351248l0 -8.97337e-005 1.56059e-005 0 3.12117e-005 0 0 8.97337e-005c0.330901,-5.20195e-006 0.630589,-0.134243 0.847584,-0.35124 0.217001,-0.216998 0.351246,-0.516698 0.351249,-0.847609l-8.97337e-005 0 0 -1.56059e-005 0 -3.12117e-005 8.97337e-005 0c-6.50244e-006,-0.330901 -0.134246,-0.63059 -0.351237,-0.847584 -0.217,-0.217003 -0.516701,-0.351246 -0.847613,-0.351249z"/>
  <path fill="#FF6633" d="M2.22051 2.15819l0.348121 0.658423c0.00279735,0.00513693 0.00423829,0.0109423 0.00413295,0.016827l0.322996 0 -0.67421 0.67421 -0.00483001 0.00916714 0.665815 -0.352031 3.90147e-006 5.20195e-006c0.00536582,-0.00281816 0.0114313,-0.00417977 0.0175397,-0.00386505 -0.00143054,-0.000414856 -0.00286628,-0.000723072 -0.00431502,-0.000942854l0 -0.326547 0.675246 0.675246 0.00167763 0.00317319 0.00961971 0.0050693 -0.352032 -0.665814 2.60098e-006 0c-0.00500558,-0.00953258 -0.00539573,-0.0212929 -2.60098e-006,-0.0315407l0.35214 -0.668231 -0.665083 0.351643c-0.00649984,0.00361926 -0.0141116,0.00504199 -0.0215959,0.00390277l1.82068e-005 3.90147e-006 0 0.326547 -0.675245 -0.675246zm0.666992 0.34634l-0.000955859 -0.000427861c0.000316019,0.000145655 0.000637239,0.00029391 0.000955859,0.000427861zm0.338325 0.318209l0.35214 -0.668233 -0.00696021 0.00368038 -0.675246 0.675246 0.326546 0c0.000554008,-0.00364397 0.00170754,-0.00725152 0.00352042,-0.0106939z"/>
  <path fill="#3300CC" fill-rule="nonzero" d="M2.15147 2.04026l0.749328 0.394876 0.746854 -0.394876c0.0165409,-0.00870937 0.0370132,-0.00235909 0.0457213,0.0141818 0.00552057,0.0104871 0.00499258,0.0225583 -0.000349831,0.0322053l-0.394527 0.748664 0.394876 0.746854c0.00870937,0.0165409 0.00236039,0.0370132 -0.0141818,0.0457213 -0.0103922,0.00547115 -0.0223359,0.00500168 -0.0319374,-0.000209379l-0.74893 -0.394667 -0.746854 0.394876c-0.0165422,0.00870937 -0.0370132,0.00236039 -0.0457226,-0.0141818 -0.00539703,-0.0102491 -0.00500298,-0.0220017 6.50244e-006,-0.0315355l-6.50244e-006 -3.90147e-006 0.394876 -0.749328 -0.394876 -0.746854c-0.00870937,-0.0165422 -0.00235909,-0.0370132 0.0141818,-0.0457226 0.0102478,-0.00539443 0.0220082,-0.00500298 0.0315407,2.60098e-006l0 -2.60098e-006zm0.733583 0.463105l-0.668231 -0.35214 0.351802 0.665383c0.00522926,0.00960801 0.00570654,0.021566 0.000228886,0.0319712l-0.35214 0.668233 0.665815 -0.352031 3.90147e-006 5.20195e-006c0.00953388,-0.00500948 0.0212864,-0.00540223 0.0315355,-5.20195e-006l0.668233 0.352138 -0.352032 -0.665814 2.60098e-006 0c-0.00500558,-0.00953258 -0.00539573,-0.0212929 -2.60098e-006,-0.0315407l0.35214 -0.668231 -0.665083 0.351643c-0.00965873,0.00537752 -0.0217611,0.00591982 -0.0322716,0.000387546z"/>
  <g id="_93173952">
   <path id="_72956832" fill="#FFCC00" d="M2.88506 2.50336l-0.668231 -0.35214 0.00368038 0.00696021 0.675245 0.675246 0 -0.326547c-0.00364397,-0.000552708 -0.00725022,-0.00170754 -0.0106939,-0.00351912z"/>
   <path id="_93414536" fill="#FFCC00" d="M2.56569 2.84413l-0.35214 0.668231 0.00696151 -0.00368038 0.675246 -0.675246 -0.326547 0c-0.000554008,0.00364397 -0.00170754,0.00725152 -0.00352042,0.0106952z"/>
   <path id="_111101744" fill="#FFCC00" d="M2.90645 3.1635l0.668233 0.35214 -0.00368038 -0.00696021 -0.675246 -0.675246 0 0.326547c0.00364397,0.000554008 0.00725152,0.00170754 0.0106939,0.00351912z"/>
   <path id="_93176752" fill="#FFCC00" d="M3.22582 2.82273l0.35214 -0.668233 -0.00696021 0.00368038 -0.675246 0.675246 0.326546 0c0.000554008,-0.00364397 0.00170754,-0.00725152 0.00352042,-0.0106939z"/>
  </g>
  <path fill="#3300CC" fill-rule="nonzero" d="M2.92988 0.745924l0.299142 1.75069 1.75447 0.302236c0.0184435,0.00314588 0.0308437,0.0206544 0.0276978,0.0390979 -0.00253465,0.014862 -0.0143912,0.0258017 -0.0285522,0.0278422l-1.75066 0.299138 -0.302237 1.75447c-0.00314588,0.0184435 -0.0206531,0.0308424 -0.0390979,0.0276965 -0.0147046,-0.00250864 -0.0255624,-0.0141415 -0.027768,-0.0281036l-0.299212 -1.75111 -1.75447 -0.302236c-0.0184435,-0.00314588 -0.0308437,-0.0206544 -0.0276978,-0.0390979 0.00248263,-0.0145577 0.0139191,-0.0253426 0.0276978,-0.0276978l1.75151 -0.299281 0.302237 -1.75447c0.00314588,-0.0184435 0.0206531,-0.0308437 0.0390966,-0.0276978 0.0148464,0.00253335 0.0257783,0.0143743 0.027837,0.0285145zm0.236385 1.78572l-0.270058 -1.58047 -0.272637 1.58265c-0.00205607,0.0141415 -0.0129919,0.0259786 -0.0278383,0.0285106l-1.58048 0.270058 1.58309 0.272715c0.0139503,0.00221343 0.0255689,0.013066 0.0280762,0.0277615l0.270059 1.58048 0.272779 -1.58347c0.00235518,-0.0137787 0.0131388,-0.0252139 0.0276978,-0.0276978l1.58047 -0.270059 -1.58269 -0.272644c-0.014122,-0.00207298 -0.0259447,-0.013001 -0.0284755,-0.0278331z"/>
  <path fill="#FF6600" d="M2.89635 4.71259l0.271586 -1.57655c0.000249694,-0.00171404 0.000622934,-0.00339688 0.00112362,-0.00502899l-0.272582 1.58233 -0.000127448 -0.000750382z"/>
  <path fill="#FF6600" d="M2.61653 3.11416l0.279228 -0.279229 -1.86012 0 0 -0.00602776 1.56009 -0.266575c0.00738938,-0.00125237 0.0138138,-0.00482481 0.0186568,-0.0098447l-0.000535801 0.000548806 0.281896 0.281898 0 -1.88111 0.000457772 -0.0026543 0.270058 1.58047c0.00253075,0.0148321 0.0143535,0.0257601 0.0284755,0.0278331l1.58269 0.272644 -0.00847398 0.00144874 -1.57209 -0.270819c-0.00735816,-0.0010703 -0.0140921,-0.0045387 -0.0192147,-0.00971725l-0.281898 0.281898 1.86523 0 -1.56403 0.267249c-0.00876399,0.00149686 -0.0161651,0.00622804 -0.0211798,0.0127721l-0.280019 -0.28002 0 1.87419 -0.269338 -1.57625c-0.00126538,-0.00741799 -0.00485732,-0.0138593 -0.00989282,-0.0187023z"/>
  <g id="_93177064">
   <path id="_93174336" fill="#FFCC00" d="M2.89575 0.95382l-0.272179 1.58c-0.0010703,0.00735816 -0.00454001,0.0140921 -0.00971725,0.0192147l0.281896 0.281898 0 -1.88111z"/>
   <path id="_93414920" fill="#FFCC00" d="M1.01465 2.83493l1.58 0.272181c0.00735816,0.0010703 0.0140921,0.0045387 0.0192147,0.00971725l0.281898 -0.281898 -1.88111 0z"/>
   <path id="_93174968" fill="#FFCC00" d="M2.89576 4.71604l0.272181 -1.58c0.0010703,-0.00735816 0.0045387,-0.0140934 0.00971725,-0.019216l-0.281898 -0.281898 0 1.88111z"/>
   <path id="_93175640" fill="#FFCC00" d="M4.77687 2.83493l-1.58 -0.272181c-0.00735816,-0.0010703 -0.0140921,-0.0045387 -0.0192147,-0.00971725l-0.281898 0.281898 1.88111 0z"/>
  </g>
 </g>
</svg>
