<svg width="520" height="400" xmlns="http://www.w3.org/2000/svg">
 <!-- Created with Method Draw - http://github.com/duopixel/Method-Draw/ -->
 <g>
  <title>background</title>
  <rect fill="#ffffff00" id="canvas_background" height="402" width="522" y="-1" x="-1"/>
  <g display="none" overflow="visible" y="0" x="0" height="100%" width="100%" id="canvasGrid">
   <rect fill="url(#gridpattern)" stroke-width="0" y="0" x="0" height="100%" width="100%"/>
  </g>
 </g>
 <g>
  <title>Layer 1</title>
  <rect stroke="#000" rx="10" id="svg_1" height="365.999985" width="483.999966" y="17.999996" x="17.000016" stroke-width="10" fill="#ffffff00"/>
  <g transform="rotate(-90 90.25000000000007,312.75000000000006) " id="svg_13">
   <rect stroke="#000" id="svg_11" height="88" width="25" y="269" x="41" fill-opacity="null" stroke-opacity="null" stroke-width="0" fill="#000000"/>
   <rect transform="rotate(-90 94.50000000000007,281.00000000000006) " stroke="#000" id="svg_12" height="90" width="25" y="236" x="82" fill-opacity="null" stroke-opacity="null" stroke-width="0" fill="#000000"/>
  </g>
  <g transform="rotate(180 426.25,315.75) " id="svg_16">
   <rect stroke="#000" id="svg_14" height="88" width="25" y="272" x="377" fill-opacity="null" stroke-opacity="null" stroke-width="0" fill="#000000"/>
   <rect transform="rotate(-90 430.50000000000006,284) " stroke="#000" id="svg_15" height="90" width="25" y="239" x="418" fill-opacity="null" stroke-opacity="null" stroke-width="0" fill="#000000"/>
  </g>
  <g transform="rotate(90 430.25,87.75000762939457) " id="svg_19">
   <rect stroke="#000" id="svg_17" height="88" width="25" y="44" x="381" fill-opacity="null" stroke-opacity="null" stroke-width="0" fill="#000000"/>
   <rect transform="rotate(-90 434.50000000000006,55.99999999999998) " stroke="#000" id="svg_18" height="90" width="25" y="11" x="422" fill-opacity="null" stroke-opacity="null" stroke-width="0" fill="#000000"/>
  </g>
  <g id="svg_20">
   <rect stroke="#000" id="svg_7" height="88" width="25" y="41" x="50" fill-opacity="null" stroke-opacity="null" stroke-width="0" fill="#000000"/>
   <rect transform="rotate(-90 103.5,52.99999999999999) " stroke="#000" id="svg_8" height="90" width="25" y="8" x="91" fill-opacity="null" stroke-opacity="null" stroke-width="0" fill="#000000"/>
  </g>
 </g>
</svg>
